<?xml version="1.0" encoding="utf-8"?>
<!-- Generator: Adobe Illustrator 19.2.1, SVG Export Plug-In . SVG Version: 6.00 Build 0)  -->
<svg version="1.1" id="Layer_1" xmlns="http://www.w3.org/2000/svg" xmlns:xlink="http://www.w3.org/1999/xlink" x="0px" y="0px"
	 viewBox="0 0 100 125" style="enable-background:new 0 0 100 125;" xml:space="preserve">
<style type="text/css">
	.st0{fill:#FFFFFF;}
</style>
<g>
	<path class="st0" d="M82.6,87.4l-14.4,0V68.2l19.1,0v14.4C87.4,85.4,85.4,87.4,82.6,87.4 M12.6,82.6V68.2l18.7,0v19.2l-14,0
		C14.6,87.4,12.6,85.4,12.6,82.6 M68.2,40.5h19.1V59H68.2V40.5z M31.4,59l-18.7,0V40.5l18.7,0V59L31.4,59z M59,87.4l-18.4,0V68.2
		l18.4,0C59,68.2,59,87.4,59,87.4z M40.6,40.5H59V59H40.6V40.5z M17.4,12.6h65.2c2.8,0,4.8,1.9,4.8,4.8v13.9H12.6V17.4
		C12.6,14.6,14.6,12.6,17.4,12.6 M82.6,3.4H17.4c-7.9,0-14,6.1-14,14v65.2c0,7.9,6.1,14,14,14l65.2,0c7.9,0,14-6.1,14-14V17.4
		C96.6,9.5,90.5,3.4,82.6,3.4"/>
</g>
</svg>
